<?xml version="1.0" encoding="UTF-8"?>
<svg version="1.1" xmlns="http://www.w3.org/2000/svg" width="513" height="140">
<path d="M0 0 C4.297713 0.05637767 6.62359097 0.08838954 9.97265625 2.85546875 C11.88908545 5.45249898 13.62707618 8.09908041 15.28808594 10.86572266 C17.55508864 14.50735834 20.1521307 17.91767823 22.6875 21.375 C23.79012006 22.90418592 24.89166007 24.43415112 25.9921875 25.96484375 C31.76371066 33.96111644 37.63548317 41.88432087 43.5 49.8125 C44.45395773 44.21748837 44.63165114 38.82914336 44.59765625 33.16015625 C44.5962413 32.26002304 44.59482635 31.35988983 44.59336853 30.43247986 C44.5878066 27.57995163 44.57526127 24.72750419 44.5625 21.875 C44.55748008 19.93164176 44.55291803 17.98828229 44.54882812 16.04492188 C44.53784966 11.3007505 44.52061153 6.55663891 44.5 1.8125 C49.45 1.8125 54.4 1.8125 59.5 1.8125 C60.99024236 4.79298471 60.62737084 7.49176982 60.62939453 10.81665039 C60.63202301 11.89732536 60.63202301 11.89732536 60.63470459 12.99983215 C60.63911413 15.38663119 60.63618858 17.77335643 60.6328125 20.16015625 C60.63348572 21.81400059 60.6344559 23.46784484 60.63571167 25.12168884 C60.63718736 28.58935487 60.63503792 32.05699516 60.63037109 35.5246582 C60.62466943 39.97938869 60.62795638 44.43405899 60.63394356 48.88878727 C60.63754884 52.30387327 60.63641082 55.71894488 60.63381577 59.1340313 C60.63314663 60.77715499 60.63397444 62.42027998 60.63629532 64.06340218 C60.63882178 66.35488495 60.63498158 68.64626878 60.62939453 70.93774414 C60.62859894 72.24409317 60.62780334 73.5504422 60.62698364 74.89637756 C60.5 77.8125 60.5 77.8125 59.5 78.8125 C54.17895313 79.65499909 48.77391504 80.18935416 43.5 78.8125 C39.9614753 76.04836368 37.99672655 72.68757843 35.74902344 68.83740234 C33.26600046 64.81195422 30.3356021 61.0933028 27.5 57.3125 C26.29400614 55.67954137 25.08955175 54.04544456 23.88671875 52.41015625 C23.31099121 51.62914551 22.73526367 50.84813477 22.14208984 50.04345703 C20.66023921 48.03020234 19.18322124 46.01349939 17.70703125 43.99609375 C16.9091324 42.91385731 16.11097815 41.8318091 15.3125 40.75 C14.63832031 39.83089844 13.96414062 38.91179687 13.26953125 37.96484375 C11.50477066 35.60591113 11.50477066 35.60591113 8.5 33.8125 C8.50222061 34.36151474 8.50444122 34.91052948 8.50672913 35.47618103 C8.52878358 41.16957959 8.54390726 46.8629661 8.55493164 52.55639648 C8.55997298 54.68368014 8.56680591 56.81096031 8.57543945 58.93823242 C8.58751379 61.98877826 8.59323014 65.03927845 8.59765625 68.08984375 C8.60281754 69.04712875 8.60797882 70.00441376 8.61329651 70.9907074 C8.61340981 72.31196373 8.61340981 72.31196373 8.61352539 73.65991211 C8.615746 74.43934677 8.61796661 75.21878143 8.62025452 76.02183533 C8.5 77.8125 8.5 77.8125 7.5 78.8125 C4.96950598 78.88563567 2.46695163 78.90497527 -0.0625 78.875 C-0.77341797 78.87048828 -1.48433594 78.86597656 -2.21679688 78.86132812 C-3.97790013 78.84950864 -5.73896036 78.83157263 -7.5 78.8125 C-8.59618541 36.2245308 -8.59618541 36.2245308 -8.625 21.75 C-8.62951172 20.85732422 -8.63402344 19.96464844 -8.63867188 19.04492188 C-8.59595005 0.68877805 -8.59595005 0.68877805 0 0 Z " fill="#048DD5" transform="translate(47.5,44.1875)"/>
<path d="M0 0 C4.46165577 -0.05016131 8.92315374 -0.08607179 13.38500977 -0.10986328 C14.89675767 -0.11980161 16.40848699 -0.13335698 17.92016602 -0.15087891 C43.62924415 -0.4409913 43.62924415 -0.4409913 52 5 C53.2684375 5.7734375 53.2684375 5.7734375 54.5625 6.5625 C59.89595331 11.89595331 62.77672661 18.904713 63.203125 26.4140625 C62.66780538 33.22909299 59.9301778 40.21068442 55 45 C48.80222841 50 48.80222841 50 46 50 C47.70613658 52.5015241 49.41463987 55.00136539 51.125 57.5 C51.62547852 58.23307373 52.12595703 58.96614746 52.64160156 59.72143555 C55.24143279 63.51124137 57.88916061 67.21272342 60.75 70.8125 C61.4925 71.864375 62.235 72.91625 63 74 C62.505 75.485 62.505 75.485 62 77 C56.25297528 78.39279179 50.58267256 79.43947752 45 77 C39.12999326 71.43673945 35.15329007 64.13136336 31.22070312 57.13305664 C30.17256474 55.085065 30.17256474 55.085065 29 54 C26.81707226 53.76518307 24.62796826 53.58636677 22.4375 53.4375 C21.23996094 53.35371094 20.04242188 53.26992187 18.80859375 53.18359375 C17.41833984 53.09271484 17.41833984 53.09271484 16 53 C16.185625 54.175625 16.37125 55.35125 16.5625 56.5625 C17.35171364 63.40235153 16.55415402 70.16543379 16 77 C10.39 77 4.78 77 -1 77 C-2.03809129 73.88572614 -2.12911872 71.7069718 -2.1328125 68.44140625 C-2.13410156 67.33216797 -2.13539063 66.22292969 -2.13671875 65.08007812 C-2.13285156 63.91927734 -2.12898438 62.75847656 -2.125 61.5625 C-2.12886719 60.43650391 -2.13273437 59.31050781 -2.13671875 58.15039062 C-2.13061836 52.84609988 -2.0178165 47.60700942 -1.52734375 42.32421875 C-0.75461885 33.98361934 -0.64068922 25.61973712 -0.4375 17.25 C-0.39419383 15.57030438 -0.35057623 13.89061677 -0.30664062 12.2109375 C-0.20084214 8.14070817 -0.099239 4.07039433 0 0 Z M16 15 C15.91286169 16.70772358 15.89299993 18.41898649 15.90234375 20.12890625 C15.90556641 21.16337891 15.90878906 22.19785156 15.91210938 23.26367188 C15.92048828 24.35228516 15.92886719 25.44089844 15.9375 26.5625 C15.94201172 27.65498047 15.94652344 28.74746094 15.95117188 29.87304688 C15.96300174 32.58208495 15.97948457 35.29101599 16 38 C19.37470504 38.11689626 22.7488843 38.18747934 26.125 38.25 C27.07632812 38.28351563 28.02765625 38.31703125 29.0078125 38.3515625 C35.04433945 38.43540315 38.3979519 38.00562266 43 34 C45.77189158 30.78102913 46 29.3064427 46 25 C45.21640031 20.67387671 43.64318924 18.58059238 40 16 C34.83171263 13.90415523 20.05506661 10.94493339 16 15 Z " fill="#028BD5" transform="translate(367,46)"/>
<path d="M0 0 C9.31995202 6.51005604 16.28225007 15.09469688 18.3359375 26.44921875 C19.82724936 39.06323153 17.23249532 49.57077161 9.6171875 59.828125 C1.22632633 69.10318444 -9.3084283 72.97034229 -21.5390625 74.01171875 C-32.27874341 74.37396989 -42.59805551 70.57796865 -50.5703125 63.390625 C-57.79844344 55.6200177 -63.02966079 44.48409407 -63.3828125 33.828125 C-62.89989383 22.73562952 -58.22487137 12.67018387 -50.3828125 4.828125 C-35.49506241 -6.94565345 -16.83387954 -9.60603653 0 0 Z M-39.8828125 17.203125 C-40.75104854 18.3866283 -41.58811498 19.5940384 -42.3828125 20.828125 C-43.28 22.2203125 -43.28 22.2203125 -44.1953125 23.640625 C-46.74141225 30.47489275 -47.1228944 36.81085929 -44.46484375 43.65625 C-41.67518087 49.25571772 -38.22416808 54.21488698 -32.3828125 56.828125 C-25.1642399 59.04799578 -16.85831143 58.94325427 -9.9453125 55.890625 C-3.77378099 52.35830128 -0.84815419 47.09184059 1.9921875 40.765625 C3.63985445 33.02159033 2.55931482 27.60517721 -1.3828125 20.828125 C-5.23056153 15.24024227 -9.17690576 12.01440639 -15.8203125 10.140625 C-24.54815618 9.07625382 -33.74605926 10.30119055 -39.8828125 17.203125 Z " fill="#038CD5" transform="translate(333.3828125,50.171875)"/>
<path d="M0 0 C0.95708359 0.00222061 1.91416718 0.00444122 2.9002533 0.00672913 C3.98129837 0.00680466 5.06234344 0.00688019 6.17614746 0.00695801 C7.94018166 0.01469994 7.94018166 0.01469994 9.73985291 0.02259827 C10.93702438 0.02401321 12.13419586 0.02542816 13.36764526 0.02688599 C17.20918732 0.03250472 21.05067208 0.04506041 24.89219666 0.05775452 C27.48920102 0.0627671 30.0862063 0.06733043 32.68321228 0.07142639 C39.06539344 0.08248024 45.44754096 0.0992366 51.82969666 0.12025452 C53.24747959 2.95582038 52.69227287 5.11112512 52.39219666 8.24525452 C52.29036072 9.34095764 52.18852478 10.43666077 52.08360291 11.56556702 C51.99981384 12.40861389 51.91602478 13.25166077 51.82969666 14.12025452 C50.82068298 14.14531067 49.81166931 14.17036682 48.77207947 14.19618225 C45.0222797 14.2904786 41.27265558 14.39064473 37.52305603 14.49256897 C35.90135309 14.53583383 34.27960707 14.57751479 32.65782166 14.61756897 C30.32435639 14.67547666 27.99110623 14.73911149 25.65782166 14.80384827 C24.9347583 14.82056076 24.21169495 14.83727325 23.46672058 14.85449219 C20.04463997 14.95480643 17.17675114 15.2834909 13.82969666 16.12025452 C13.82969666 21.07025452 13.82969666 26.02025452 13.82969666 31.12025452 C15.72719666 31.09962952 17.62469666 31.07900452 19.57969666 31.05775452 C29.01330486 31.04806909 38.41349422 31.58976424 47.82969666 32.12025452 C48.82969666 34.12025452 48.82969666 34.12025452 47.82969666 46.12025452 C36.60969666 46.12025452 25.38969666 46.12025452 13.82969666 46.12025452 C13.82969666 51.07025452 13.82969666 56.02025452 13.82969666 61.12025452 C17.46202768 62.33103152 20.78091652 62.24469616 24.56016541 62.21791077 C25.31058609 62.21649582 26.06100677 62.21508087 26.83416748 62.21362305 C29.22855126 62.20803011 31.62284119 62.19547896 34.01719666 62.18275452 C35.64154426 62.1777386 37.26589334 62.17317585 38.89024353 62.16908264 C42.87009735 62.158063 46.84988109 62.14080325 50.82969666 62.12025452 C51.97199544 65.54715088 51.73830741 67.7312767 51.39219666 71.30775452 C51.23944275 72.93777405 51.23944275 72.93777405 51.08360291 74.60072327 C50.99981384 75.43216858 50.91602478 76.26361389 50.82969666 77.12025452 C43.30000013 77.14552099 35.77031446 77.16308593 28.24058533 77.17518616 C25.67677909 77.18022822 23.11297574 77.18706166 20.54917908 77.19569397 C16.87314644 77.20776516 13.19715168 77.21348394 9.52110291 77.21791077 C8.36695389 77.22307205 7.21280487 77.22823334 6.02368164 77.23355103 C4.96265732 77.23362656 3.901633 77.23370209 2.80845642 77.23377991 C1.86913773 77.23600052 0.92981903 77.23822113 -0.03796387 77.24050903 C-2.17030334 77.12025452 -2.17030334 77.12025452 -3.17030334 76.12025452 C-3.27053889 73.78311127 -3.30649537 71.47551127 -3.29969788 69.13783264 C-3.3014502 68.40777512 -3.30320251 67.67771759 -3.30500793 66.92553711 C-3.30942634 64.50083573 -3.30648851 62.0762067 -3.30311584 59.65150452 C-3.30378889 57.97381069 -3.30475892 56.29611695 -3.30601501 54.61842346 C-3.30749197 51.09770278 -3.30533751 47.57700742 -3.30067444 44.05628967 C-3.29497715 39.53314956 -3.29825616 35.01006878 -3.3042469 30.48693085 C-3.30785258 27.02123056 -3.3067139 23.55554445 -3.30411911 20.08984375 C-3.30344986 18.42160027 -3.3042782 16.75335552 -3.30659866 15.08511353 C-3.3091253 12.75759958 -3.30528447 10.43018304 -3.29969788 8.10267639 C-3.30172211 7.40653732 -3.30374634 6.71039825 -3.30583191 5.99316406 C-3.27986132 0.18173411 -3.27986132 0.18173411 0 0 Z " fill="#028BD4" transform="translate(130.17030334472656,45.87974548339844)"/>
<path d="M0 0 C5.61 0 11.22 0 17 0 C20.27001844 6.30846905 23.03142221 12.73944291 25.6953125 19.32421875 C26.34558914 20.92086113 26.34558914 20.92086113 27.00900269 22.54975891 C28.38397924 25.927804 29.75453787 29.30762127 31.125 32.6875 C32.0530974 34.9695182 32.98148001 37.25142042 33.91015625 39.53320312 C38.68745981 51.27690008 38.68745981 51.27690008 41 57 C41.36721161 57.84911453 41.73442322 58.69822906 42.11276245 59.57307434 C43.35472016 62.97029196 43.21364691 66.24957593 43.125 69.8125 C43.11597656 70.50537109 43.10695313 71.19824219 43.09765625 71.91210938 C43.07426157 73.60822395 43.03839641 75.30415871 43 77 C40.59454362 78.20272819 39.05003047 78.10071472 36.375 78.0625 C35.55773437 78.05347656 34.74046875 78.04445313 33.8984375 78.03515625 C33.27195312 78.02355469 32.64546875 78.01195313 32 78 C29.9941756 74.05751755 28.04492286 70.18365862 26.4375 66.0625 C25.963125 65.051875 25.48875 64.04125 25 63 C21.57117059 61.85705686 18.75917162 61.79035528 15.14453125 61.68359375 C14.48289474 61.66281265 13.82125824 61.64203156 13.13957214 61.62062073 C11.03065148 61.55535273 8.92160865 61.49634656 6.8125 61.4375 C5.38084685 61.39429311 3.94920596 61.35067812 2.51757812 61.30664062 C-0.98815154 61.19969494 -4.49401786 61.09836359 -8 61 C-8.18175781 61.65226562 -8.36351562 62.30453125 -8.55078125 62.9765625 C-8.80214844 63.85054687 -9.05351562 64.72453125 -9.3125 65.625 C-9.55613281 66.48351562 -9.79976563 67.34203125 -10.05078125 68.2265625 C-11 71 -11 71 -14 77 C-18.95 77 -23.9 77 -29 77 C-30.1624169 73.5127493 -29.85986138 72.98534038 -28.5078125 69.71484375 C-27.95685913 68.36011963 -27.95685913 68.36011963 -27.39477539 66.97802734 C-26.97574951 65.97465332 -26.55672363 64.9712793 -26.125 63.9375 C-25.20948814 61.69927898 -24.29413637 59.46099248 -23.37890625 57.22265625 C-22.84922044 55.93631976 -22.31942993 54.65002639 -21.78955078 53.36376953 C-19.72171004 48.3334716 -17.68713257 43.28983228 -15.65234375 38.24609375 C-14.88852513 36.35359054 -14.12469041 34.46109383 -13.36083984 32.56860352 C-12.9809491 31.62735626 -12.60105835 30.68610901 -12.20965576 29.71633911 C-10.36226923 25.14062953 -8.51244279 20.5659156 -6.66015625 15.9921875 C-6.17312477 14.78718849 -6.17312477 14.78718849 -5.67625427 13.55784607 C-5.3680928 12.7973848 -5.05993134 12.03692352 -4.74243164 11.25341797 C-4.3446627 10.27065384 -4.3446627 10.27065384 -3.93885803 9.26803589 C-2.65497052 6.16649886 -1.32229615 3.08535768 0 0 Z M8 20 C4.31576987 28.55995596 1.05856432 37.2017469 -2 46 C2.65537356 46.92092281 7.14685433 47.12205997 11.875 47.0625 C12.56335938 47.05798828 13.25171875 47.05347656 13.9609375 47.04882812 C15.64066335 47.03716336 17.32034375 47.01923271 19 47 C16.58650007 37.64481454 12.75743534 28.873724 9 20 C8.67 20 8.34 20 8 20 Z " fill="#038CD5" transform="translate(470,46)"/>
<path d="M0 0 C12.98090692 -1.35322196 12.98090692 -1.35322196 17.203125 1.4765625 C19.05769298 3.88029867 20.50543914 6.35524715 22 9 C23.32342014 11.01466622 24.67910788 13.00548098 26.03588867 14.99780273 C28.05795888 17.97649073 30.02779384 20.98811977 32 24 C36.0823942 20.38085621 38.69783893 16.01863814 41.5625 11.4375 C42.51858842 9.91313413 43.47810424 8.39091137 44.44140625 6.87109375 C44.86107666 6.20005615 45.28074707 5.52901855 45.71313477 4.83764648 C47.03201868 2.95427725 48.20219418 1.43935785 50 0 C52.83056579 -0.05538697 55.39069365 0.0364833 58.1875 0.3125 C58.93708984 0.37373047 59.68667969 0.43496094 60.45898438 0.49804688 C62.30722745 0.65108611 64.1538335 0.82366879 66 1 C65.38931219 5.09479613 63.12149664 8.0884884 60.81640625 11.41015625 C60.40083969 12.0188707 59.98527313 12.62758514 59.55711365 13.25474548 C58.2310561 15.19448503 56.89695877 17.12853316 55.5625 19.0625 C54.66807725 20.36746685 53.77419099 21.67280158 52.88085938 22.97851562 C51.24234904 25.37218637 49.60060261 27.76356603 47.95532227 30.15258789 C44.9518286 33.91505136 44.9518286 33.91505136 44.17578125 38.37109375 C45.11890718 41.37926318 46.39436184 43.46646416 48.1875 46.0625 C48.89519531 47.09632812 49.60289062 48.13015625 50.33203125 49.1953125 C52.40044863 52.15714986 54.487695 55.10558771 56.57421875 58.0546875 C57.19981689 58.94148193 57.82541504 59.82827637 58.4699707 60.74194336 C59.72477614 62.51745365 60.98490869 64.28921292 62.25073242 66.05688477 C63.12822144 67.29523071 63.12822144 67.29523071 64.0234375 68.55859375 C64.54856934 69.29392334 65.07370117 70.02925293 65.61474609 70.78686523 C67.07245484 73.11575664 68.05674194 75.42457164 69 78 C62.84765625 78.78125 62.84765625 78.78125 60 79 C59.34378662 79.16693359 58.68757324 79.33386719 58.01147461 79.50585938 C55.23269844 79.96579474 53.67551444 79.94914177 51 79 C47.13051719 74.93337855 44.34121498 70.28070201 41.4375 65.5 C40.61424854 64.19736849 39.7881037 62.89656078 38.95898438 61.59765625 C36.93853982 58.41858137 34.95933119 55.2170678 33 52 C29.37341652 56.41810234 25.99579842 60.78840361 23.25390625 65.81640625 C16.427102 78.06390437 16.427102 78.06390437 11.89208984 79.81298828 C7.1413102 80.55454796 2.67779172 79.96167799 -2 79 C-2.33 78.01 -2.66 77.02 -3 76 C-1.78759766 73.77026367 -1.78759766 73.77026367 0.0859375 71.16796875 C0.76591797 70.21027588 1.44589844 69.25258301 2.14648438 68.26586914 C2.88189453 67.25000732 3.61730469 66.23414551 4.375 65.1875 C5.85346591 63.10812287 7.33003481 61.02739562 8.8046875 58.9453125 C9.52495117 57.93114258 10.24521484 56.91697266 10.98730469 55.87207031 C14.84509639 50.36708953 18.44221938 44.70233171 22 39 C15.31718786 28.0987533 8.30729955 17.49155681 1 7 C-1 4 -1 4 -0.625 1.8125 C-0.41875 1.214375 -0.2125 0.61625 0 0 Z " fill="#018BD5" transform="translate(198,45)"/>
<path d="M0 0 C4.62 0 9.24 0 14 0 C14.495 1.98 14.495 1.98 15 4 C15.66 4 16.32 4 17 4 C17.37125 5.175625 17.7425 6.35125 18.125 7.5625 C20.84268544 15.72849768 24.13735098 23.73660337 27.58203125 31.62109375 C28.80927489 34.54551731 29.811959 37.39395273 30.6875 40.4375 C30.93886719 41.30246094 31.19023437 42.16742188 31.44921875 43.05859375 C31.63097656 43.69925781 31.81273437 44.33992188 32 45 C31.01 44.34 30.02 43.68 29 43 C28.34 44.32 27.68 45.64 27 47 C26.34 47 25.68 47 25 47 C25.66 44.69 26.32 42.38 27 40 C22.76915097 41.68807908 22.76915097 41.68807908 20 45 C15.47621765 35.53549684 11.73825386 25.7927169 8 16 C7.34 16 6.68 16 6 16 C6 16.66 6 17.32 6 18 C5.01 18 4.02 18 3 18 C2.88527344 18.68707031 2.77054687 19.37414062 2.65234375 20.08203125 C1.90430734 23.42803842 0.79214445 26.48750538 -0.4375 29.6875 C-1.08525391 31.39486328 -1.08525391 31.39486328 -1.74609375 33.13671875 C-3 36 -3 36 -5 38 C-5.99 37.67 -6.98 37.34 -8 37 C-8.66 37.66 -9.32 38.32 -10 39 C-10.99 38.34 -11.98 37.68 -13 37 C-13.33 38.98 -13.66 40.96 -14 43 C-15.98 43.495 -15.98 43.495 -18 44 C-17.80664062 43.443125 -17.61328125 42.88625 -17.4140625 42.3125 C-15.68625575 37.24882873 -14.2306933 32.20677935 -13 27 C-12.34 27 -11.68 27 -11 27 C-10.74605469 25.87980469 -10.49210937 24.75960937 -10.23046875 23.60546875 C-9.88337819 22.13267907 -9.53569067 20.66002999 -9.1875 19.1875 C-9.02185547 18.44951172 -8.85621094 17.71152344 -8.68554688 16.95117188 C-7.76092739 13.0956831 -7.06750648 10.5562554 -4 8 C-2.80400932 5.96767758 -2.80400932 5.96767758 -1.8125 3.8125 C-1.214375 2.554375 -0.61625 1.29625 0 0 Z " fill="#018BD5" transform="translate(472,49)"/>
<path d="M0 0 C0.95708359 0.00222061 1.91416718 0.00444122 2.9002533 0.00672913 C3.98129837 0.00680466 5.06234344 0.00688019 6.17614746 0.00695801 C7.94018166 0.01469994 7.94018166 0.01469994 9.73985291 0.02259827 C10.93702438 0.02401321 12.13419586 0.02542816 13.36764526 0.02688599 C17.20918732 0.03250472 21.05067208 0.04506041 24.89219666 0.05775452 C27.48920102 0.0627671 30.0862063 0.06733043 32.68321228 0.07142639 C39.06539344 0.08248024 45.44754096 0.0992366 51.82969666 0.12025452 C51.82969666 2.90021558 51.61671736 5.54518019 51.32969666 8.30775452 C51.19047791 9.65933655 51.19047791 9.65933655 51.04844666 11.03822327 C50.97625916 11.72529358 50.90407166 12.41236389 50.82969666 13.12025452 C50.49969666 13.12025452 50.16969666 13.12025452 49.82969666 13.12025452 C49.82969666 9.82025452 49.82969666 6.52025452 49.82969666 3.12025452 C33.32969666 3.12025452 16.82969666 3.12025452 -0.17030334 3.12025452 C-0.17030334 26.55025452 -0.17030334 49.98025452 -0.17030334 74.12025452 C15.99969666 74.12025452 32.16969666 74.12025452 48.82969666 74.12025452 C48.82969666 71.48025452 48.82969666 68.84025452 48.82969666 66.12025452 C37.93969666 66.12025452 27.04969666 66.12025452 15.82969666 66.12025452 C15.33469666 65.13025452 15.33469666 65.13025452 14.82969666 64.12025452 C16.82969666 62.12025452 16.82969666 62.12025452 20.17784119 61.89320374 C21.60610299 61.89352077 23.03438877 61.9048409 24.46250916 61.92494202 C25.5902626 61.92918686 25.5902626 61.92918686 26.74079895 61.93351746 C29.14559243 61.94472578 31.55001547 61.969831 33.95469666 61.99525452 C35.58359753 62.0052835 37.21250424 62.01440949 38.84141541 62.02259827 C42.83765221 62.04466717 46.8336116 62.07920101 50.82969666 62.12025452 C51.97199544 65.54715088 51.73830741 67.7312767 51.39219666 71.30775452 C51.23944275 72.93777405 51.23944275 72.93777405 51.08360291 74.60072327 C50.99981384 75.43216858 50.91602478 76.26361389 50.82969666 77.12025452 C43.30000013 77.14552099 35.77031446 77.16308593 28.24058533 77.17518616 C25.67677909 77.18022822 23.11297574 77.18706166 20.54917908 77.19569397 C16.87314644 77.20776516 13.19715168 77.21348394 9.52110291 77.21791077 C8.36695389 77.22307205 7.21280487 77.22823334 6.02368164 77.23355103 C4.96265732 77.23362656 3.901633 77.23370209 2.80845642 77.23377991 C1.86913773 77.23600052 0.92981903 77.23822113 -0.03796387 77.24050903 C-2.17030334 77.12025452 -2.17030334 77.12025452 -3.17030334 76.12025452 C-3.27053889 73.78311127 -3.30649537 71.47551127 -3.29969788 69.13783264 C-3.3014502 68.40777512 -3.30320251 67.67771759 -3.30500793 66.92553711 C-3.30942634 64.50083573 -3.30648851 62.0762067 -3.30311584 59.65150452 C-3.30378889 57.97381069 -3.30475892 56.29611695 -3.30601501 54.61842346 C-3.30749197 51.09770278 -3.30533751 47.57700742 -3.30067444 44.05628967 C-3.29497715 39.53314956 -3.29825616 35.01006878 -3.3042469 30.48693085 C-3.30785258 27.02123056 -3.3067139 23.55554445 -3.30411911 20.08984375 C-3.30344986 18.42160027 -3.3042782 16.75335552 -3.30659866 15.08511353 C-3.3091253 12.75759958 -3.30528447 10.43018304 -3.29969788 8.10267639 C-3.30172211 7.40653732 -3.30374634 6.71039825 -3.30583191 5.99316406 C-3.27986132 0.18173411 -3.27986132 0.18173411 0 0 Z " fill="#1497D4" transform="translate(130.17030334472656,45.87974548339844)"/>
<path d="M0 0 C12.98090692 -1.35322196 12.98090692 -1.35322196 17.203125 1.4765625 C19.05769298 3.88029867 20.50543914 6.35524715 22 9 C23.32342014 11.01466622 24.67910788 13.00548098 26.03588867 14.99780273 C28.05795888 17.97649073 30.02779384 20.98811977 32 24 C36.0823942 20.38085621 38.69783893 16.01863814 41.5625 11.4375 C42.51858842 9.91313413 43.47810424 8.39091137 44.44140625 6.87109375 C44.86107666 6.20005615 45.28074707 5.52901855 45.71313477 4.83764648 C47.03201868 2.95427725 48.20219418 1.43935785 50 0 C52.83056579 -0.05538697 55.39069365 0.0364833 58.1875 0.3125 C58.93708984 0.37373047 59.68667969 0.43496094 60.45898438 0.49804688 C62.30722745 0.65108611 64.1538335 0.82366879 66 1 C65.38931219 5.09479613 63.12149664 8.0884884 60.81640625 11.41015625 C60.40083969 12.0188707 59.98527313 12.62758514 59.55711365 13.25474548 C58.2310561 15.19448503 56.89695877 17.12853316 55.5625 19.0625 C54.66807725 20.36746685 53.77419099 21.67280158 52.88085938 22.97851562 C51.24234904 25.37218637 49.60060261 27.76356603 47.95532227 30.15258789 C44.64188143 34.46354313 44.64188143 34.46354313 44.375 39.6875 C44.58125 40.780625 44.7875 41.87375 45 43 C41.2496374 41.54824674 41.2496374 41.54824674 40.18359375 39.20703125 C39.92204841 36.06292241 41.10432122 34.91740736 43 32.4375 C45.66075539 28.84045494 48.18310365 25.22750044 50.5625 21.4375 C53.25639648 17.14676895 56.04910602 12.9421524 58.93359375 8.77734375 C60.17149859 7.05962255 60.17149859 7.05962255 60 5 C55.05 4.01 55.05 4.01 50 3 C49.566875 4.4540625 49.566875 4.4540625 49.125 5.9375 C48 9 48 9 46 10 C46.495 11.98 46.495 11.98 47 14 C45.02 14.66 43.04 15.32 41 16 C40.95875 16.721875 40.9175 17.44375 40.875 18.1875 C39.63721895 22.16608196 37.32298855 23.60744824 34 26 C33.01 26.33 32.02 26.66 31 27 C26.9957657 23.50912907 25.37328935 21.35048061 25 16 C24.01 15.67 23.02 15.34 22 15 C20.68359375 13.1875 20.68359375 13.1875 19.4375 11 C17.78625452 7.91497173 17.78625452 7.91497173 15 6 C15 5.34 15 4.68 15 4 C13.906875 4.185625 12.81375 4.37125 11.6875 4.5625 C8 5 8 5 5 4 C4.01 4.495 4.01 4.495 3 5 C3.53109375 5.71285156 4.0621875 6.42570312 4.609375 7.16015625 C11.08544304 15.94066456 11.08544304 15.94066456 13 19.5 C15.31615563 23.79845098 18.29583508 27.62984512 21.1953125 31.546875 C25.02085472 36.7469627 25.02085472 36.7469627 24.80224609 39.39941406 C23.93640704 42.20614493 22.81594977 44.18551564 21.1640625 46.609375 C20.59429687 47.44597656 20.02453125 48.28257813 19.4375 49.14453125 C18.839375 50.00433594 18.24125 50.86414063 17.625 51.75 C17.03460938 52.62527344 16.44421875 53.50054687 15.8359375 54.40234375 C11.38193222 60.87268926 11.38193222 60.87268926 8 62 C9.60699831 57.27031178 12.20549104 53.46296739 15 49.375 C15.45117188 48.70726562 15.90234375 48.03953125 16.3671875 47.3515625 C17.20490774 46.11233138 18.04452746 44.8743805 18.88671875 43.63818359 C19.93333191 42.09810151 20.96711727 40.5493241 22 39 C15.31718786 28.0987533 8.30729955 17.49155681 1 7 C-1 4 -1 4 -0.625 1.8125 C-0.41875 1.214375 -0.2125 0.61625 0 0 Z M6 5 C8 6 8 6 8 6 Z " fill="#1A9DD2" transform="translate(198,45)"/>
<path d="M0 0 C0.66 0.66 1.32 1.32 2 2 C1.53851563 2.62003906 1.07703125 3.24007812 0.6015625 3.87890625 C-0.05070312 4.76449219 -0.70296875 5.65007812 -1.375 6.5625 C-2.11492187 7.54992187 -2.85484375 8.53734375 -3.6171875 9.5546875 C-5.36141104 11.97207008 -6.80783055 14.43298085 -8.1953125 17.0703125 C-13.77535261 27.26674238 -13.77535261 27.26674238 -18.00878906 28.66210938 C-22.75777823 29.29417671 -27.29864943 28.78744706 -32 28 C-32.33 27.01 -32.66 26.02 -33 25 C-31.52176078 22.50861888 -30.02408753 20.25817661 -28.3125 17.9375 C-27.86455078 17.30005859 -27.41660156 16.66261719 -26.95507812 16.00585938 C-24.56154037 12.69950227 -22.83298747 10.61432518 -19 9 C-16.75592746 5.96798075 -16.75592746 5.96798075 -15 3 C-14.87625 3.928125 -14.87625 3.928125 -14.75 4.875 C-14.18741541 7.18437567 -14.18741541 7.18437567 -11.9375 8.25 C-10.9784375 8.62125 -10.9784375 8.62125 -10 9 C-10 9.66 -10 10.32 -10 11 C-6.31353859 9.54144353 -4.83856029 7.69770955 -2.75 4.375 C-2.22921875 3.55773437 -1.7084375 2.74046875 -1.171875 1.8984375 C-0.78515625 1.27195312 -0.3984375 0.64546875 0 0 Z " fill="#038CD5" transform="translate(228,96)"/>
<path d="M0 0 C4.46165577 -0.05016131 8.92315374 -0.08607179 13.38500977 -0.10986328 C14.89675767 -0.11980161 16.40848699 -0.13335698 17.92016602 -0.15087891 C27.51476826 -0.25914856 36.54596334 0.1680545 46 2 C46 2.33 46 2.66 46 3 C31.48 3 16.96 3 2 3 C2.020625 6.361875 2.04125 9.72375 2.0625 13.1875 C2.11878379 33.46202095 1.50034632 53.73331276 1 74 C4.96 74 8.92 74 13 74 C13 74.33 13 74.66 13 75 C8.05 75 3.1 75 -2 75 C-2.02724387 70.74995579 -2.0469563 66.50009034 -2.0625 62.25 C-2.07087891 61.06277344 -2.07925781 59.87554687 -2.08789062 58.65234375 C-2.10562112 52.16298431 -1.86204695 45.80701132 -1.25610352 39.34863281 C-0.6939428 31.99820727 -0.61636842 24.61791889 -0.4375 17.25 C-0.39419383 15.57030438 -0.35057623 13.89061677 -0.30664062 12.2109375 C-0.20084214 8.14070817 -0.099239 4.07039433 0 0 Z " fill="#1C95CE" transform="translate(367,46)"/>
<path d="M0 0 C1.65 0 3.3 0 5 0 C3.625 1.5 3.625 1.5 2 3 C1.34 3 0.68 3 0 3 C1.70613658 5.5015241 3.41463987 8.00136539 5.125 10.5 C5.62547852 11.23307373 6.12595703 11.96614746 6.64160156 12.72143555 C9.24143279 16.51124137 11.88916061 20.21272342 14.75 23.8125 C15.4925 24.864375 16.235 25.91625 17 27 C16.505 28.485 16.505 28.485 16 30 C10.25297528 31.39279179 4.58267256 32.43947752 -1 30 C-6.87000674 24.43673945 -10.84670993 17.13136336 -14.77929688 10.13305664 C-15.82743526 8.085065 -15.82743526 8.085065 -17 7 C-19.18292774 6.76518307 -21.37203174 6.58636677 -23.5625 6.4375 C-24.76003906 6.35371094 -25.95757812 6.26992187 -27.19140625 6.18359375 C-28.11824219 6.12300781 -29.04507812 6.06242187 -30 6 C-29.9278125 6.56847656 -29.855625 7.13695313 -29.78125 7.72265625 C-28.91697753 14.91292301 -28.30790295 21.10150131 -31 28 C-31.33 28 -31.66 28 -32 28 C-32.02887236 24.18751574 -32.04675492 20.3750593 -32.0625 16.5625 C-32.07087891 15.47388672 -32.07925781 14.38527344 -32.08789062 13.26367188 C-32.09111328 12.22919922 -32.09433594 11.19472656 -32.09765625 10.12890625 C-32.10289307 9.17056885 -32.10812988 8.21223145 -32.11352539 7.22485352 C-32 5 -32 5 -31 4 C-17.1811372 2.31049659 -17.1811372 2.31049659 -12.81640625 5.69140625 C-11.29827891 8.05705184 -10.1567153 10.43980347 -9 13 C-7.90127553 14.66348938 -6.7767419 16.31026832 -5.625 17.9375 C-3 21.75384615 -3 21.75384615 -3 24 C-2.34 24 -1.68 24 -1 24 C-0.67 24.66 -0.34 25.32 0 26 C3.04581269 26.46954261 3.04581269 26.46954261 6.5625 26.625 C8.35880859 26.73714844 8.35880859 26.73714844 10.19140625 26.8515625 C11.11824219 26.90054688 12.04507813 26.94953125 13 27 C12.505 26.21625 12.01 25.4325 11.5 24.625 C10 22 10 22 10 20 C9.01 19.67 8.02 19.34 7 19 C5.94228261 17.36935236 4.94726954 15.69719127 4 14 C3.443125 13.278125 2.88625 12.55625 2.3125 11.8125 C1 10 1 10 1 8 C0.34 8 -0.32 8 -1 8 C-1.93065133 5.39417629 -2.14917407 4.35801776 -1.0625 1.75 C-0.5365625 0.88375 -0.5365625 0.88375 0 0 Z " fill="#1F9DD3" transform="translate(413,93)"/>
<path d="M0 0 C5.61 0 11.22 0 17 0 C20.27001844 6.30846905 23.03142221 12.73944291 25.6953125 19.32421875 C26.34558914 20.92086113 26.34558914 20.92086113 27.00900269 22.54975891 C28.38397924 25.927804 29.75453787 29.30762127 31.125 32.6875 C32.0530974 34.9695182 32.98148001 37.25142042 33.91015625 39.53320312 C38.68745981 51.27690008 38.68745981 51.27690008 41 57 C41.3686618 57.8585408 41.73732361 58.7170816 42.11715698 59.60163879 C43.18592883 62.50510054 43.14275266 64.93081778 43 68 C39.83776716 64.83776716 38.79762944 60.47367695 37.29882812 56.32226562 C36.6135633 54.51533971 35.81337332 52.75299543 35 51 C34.01 50.67 33.02 50.34 32 50 C32.19851563 49.4328125 32.39703125 48.865625 32.6015625 48.28125 C33.09938284 45.43098454 32.52643209 44.13686738 31.375 41.5 C30.99988281 40.62085938 30.62476563 39.74171875 30.23828125 38.8359375 C29.82964844 37.90007812 29.42101562 36.96421875 29 36 C28.1849151 34.04274112 27.37247886 32.08437744 26.5625 30.125 C25.2582249 26.98582857 23.93776096 23.85834667 22.5703125 20.74609375 C22.11398437 19.69550781 21.65765625 18.64492187 21.1875 17.5625 C20.55908203 16.14130859 20.55908203 16.14130859 19.91796875 14.69140625 C18.98006801 11.9415611 18.81698136 9.88123629 19 7 C18.34 7 17.68 7 17 7 C16.67 6.01 16.34 5.02 16 4 C11.38 4 6.76 4 2 4 C1.401875 5.27875 0.80375 6.5575 0.1875 7.875 C-1.31923802 11.09630198 -1.9072219 11.93814793 -5 14 C-4.54363464 12.603522 -4.08480512 11.2078492 -3.625 9.8125 C-3.36976563 9.03519531 -3.11453125 8.25789063 -2.8515625 7.45703125 C-1.98008898 4.94255032 -0.9883515 2.47087874 0 0 Z " fill="#2099D0" transform="translate(470,46)"/>
<path d="M0 0 C0.33 0 0.66 0 1 0 C1 24.09 1 48.18 1 73 C4.96 73 8.92 73 13 73 C13 68.38 13 63.76 13 59 C13.66 59.33 14.32 59.66 15 60 C15.02685095 62.47923801 15.04676547 64.9581884 15.0625 67.4375 C15.07087891 68.14455078 15.07925781 68.85160156 15.08789062 69.58007812 C15.09653588 71.38693559 15.05220011 73.19387603 15 75 C14 76 14 76 10.62109375 76.09765625 C9.22652923 76.09098369 7.83198257 76.07902532 6.4375 76.0625 C5.72658203 76.05798828 5.01566406 76.05347656 4.28320312 76.04882812 C2.52209987 76.03700864 0.76103964 76.01907263 -1 76 C-2.19388403 29.6163353 -2.19388403 29.6163353 -2 9 C-1.34 9 -0.68 9 0 9 C0 6.03 0 3.06 0 0 Z " fill="#1AA1D7" transform="translate(41,47)"/>
<path d="M0 0 C0.33 0 0.66 0 1 0 C1.6319296 6.00333124 -0.62455877 10.63404795 -3 16 C-3.66 16 -4.32 16 -5 16 C-5.103125 17.134375 -5.20625 18.26875 -5.3125 19.4375 C-5.80669406 23.57545326 -7.00107566 27.23219003 -8.4765625 31.1171875 C-9.24548066 33.06774289 -9.24548066 33.06774289 -8 35 C-9.485 35.495 -9.485 35.495 -11 36 C-10.01 37.65 -9.02 39.3 -8 41 C-8.99 41.99 -9.98 42.98 -11 44 C-11.66 43.01 -12.32 42.02 -13 41 C-15.64 47.27 -18.28 53.54 -21 60 C-15.06 59.505 -15.06 59.505 -9 59 C-8.401875 57.39125 -7.80375 55.7825 -7.1875 54.125 C-5.375 49.25 -5.375 49.25 -2 47 C-2.43016932 48.54372819 -2.86954826 50.08489087 -3.3125 51.625 C-3.55613281 52.48351562 -3.79976563 53.34203125 -4.05078125 54.2265625 C-5 57 -5 57 -8 63 C-12.95 63 -17.9 63 -23 63 C-24.1842819 59.44715431 -23.79162604 58.82253557 -22.40234375 55.46875 C-22.01933105 54.52894287 -21.63631836 53.58913574 -21.24169922 52.62084961 C-20.81131348 51.59096924 -20.38092773 50.56108887 -19.9375 49.5 C-19.02153431 47.26196467 -18.10620887 45.02366724 -17.19140625 42.78515625 C-16.8200354 41.88223595 -16.8200354 41.88223595 -16.44116211 40.96107483 C-13.34824706 33.4396293 -10.34283603 25.88322407 -7.32962036 18.32958984 C-5.79249814 14.47786554 -4.25160164 10.62765234 -2.7109375 6.77734375 C-2.18276157 5.45695722 -1.65460209 4.13656411 -1.12646484 2.81616211 C-0.75473145 1.88682861 -0.38299805 0.95749512 0 0 Z " fill="#1E9DD4" transform="translate(464,60)"/>
<path d="M0 0 C0.66 0 1.32 0 2 0 C5 5.75 5 5.75 5 8 C5.556875 8.268125 6.11375 8.53625 6.6875 8.8125 C9.21225334 10.10899496 11.63714484 11.42476323 14 13 C14 13.66 14 14.32 14 15 C14.928125 15.28875 15.85625 15.5775 16.8125 15.875 C20 17 20 17 23 19 C25.54654258 19.1985836 27.95607834 19.28393076 30.5 19.25 C31.21397949 19.24395752 31.92795898 19.23791504 32.66357422 19.23168945 C41.08850078 19.07546189 48.52746532 18.10989408 56 14 C56.99 14 57.98 14 59 14 C59 14.66 59 15.32 59 16 C47.80509001 22.36240004 36.02771449 24.90870241 23.35546875 21.74609375 C13.72441665 18.69546199 6.83826063 13.39755401 1 5.1875 C0 3 0 3 0 0 Z " fill="#1D9BD2" transform="translate(276,101)"/>
<path d="M0 0 C0.99 0 1.98 0 3 0 C4.76171875 2.203125 4.76171875 2.203125 6.6875 5.25 C7.38230469 6.33539063 8.07710937 7.42078125 8.79296875 8.5390625 C9.15310059 9.10786133 9.51323242 9.67666016 9.88427734 10.26269531 C10.99631835 11.99426725 12.14059956 13.69880828 13.30078125 15.3984375 C14.02652344 16.46320313 14.75226563 17.52796875 15.5 18.625 C16.1703125 19.60726562 16.840625 20.58953125 17.53125 21.6015625 C19 24 19 24 19 26 C20.79206547 25.85915204 22.58364917 25.71216299 24.375 25.5625 C25.37273437 25.48128906 26.37046875 25.40007812 27.3984375 25.31640625 C29.97927613 25.15034374 29.97927613 25.15034374 32 24 C31.505 21.525 31.505 21.525 31 19 C36.22321429 23.82142857 36.22321429 23.82142857 37 28 C30.84765625 28.78125 30.84765625 28.78125 28 29 C27.3495874 29.17200928 26.6991748 29.34401855 26.02905273 29.52124023 C23.2259867 30.00318605 21.69810192 29.97445595 19 29 C14.96732515 24.79551283 12.0103579 19.98914758 8.9375 15.0625 C8.06597821 13.72016541 7.19165541 12.37964497 6.31445312 11.04101562 C0 1.33234247 0 1.33234247 0 0 Z " fill="#1B9CD4" transform="translate(230,95)"/>
<path d="M0 0 C7.55506019 5.55198948 12.03824626 12.32984712 13.71875 21.62109375 C15.14225926 33.66160954 12.67456207 42.67894857 6.59765625 53.06640625 C4.78324462 55.2623323 3.78047743 55.657695 1 56 C1.47050781 55.33355469 1.94101562 54.66710937 2.42578125 53.98046875 C8.94411545 44.33117486 12.48173528 34.77063865 11 23 C9.23742744 15.7206749 6.13678298 9.48901953 1 4 C0.34 3.67 -0.32 3.34 -1 3 C-0.67 2.01 -0.34 1.02 0 0 Z " fill="#209CD2" transform="translate(338,55)"/>
<path d="M0 0 C0.33 0 0.66 0 1 0 C1 3.63 1 7.26 1 11 C-9.89 11 -20.78 11 -32 11 C-32.84370962 20.31720681 -32.84370962 20.31720681 -31 29 C-31.99 29.33 -32.98 29.66 -34 30 C-35 29 -35 29 -35.11352539 27.05053711 C-35.10567017 25.8015564 -35.10567017 25.8015564 -35.09765625 24.52734375 C-35.09515869 23.71773193 -35.09266113 22.90812012 -35.09008789 22.07397461 C-35.08098389 21.03893799 -35.07187988 20.00390137 -35.0625 18.9375 C-35.0315625 14.0184375 -35.0315625 14.0184375 -35 9 C-23.45 9 -11.9 9 0 9 C0 6.03 0 3.06 0 0 Z " fill="#0F9CE1" transform="translate(176,80)"/>
<path d="M0 0 C5.28 0 10.56 0 16 0 C16 0.66 16 1.32 16 2 C17.11375 2.185625 17.11375 2.185625 18.25 2.375 C23.58130217 3.58665958 25.79153835 5.48501955 28.75 10.125 C32.99873385 17.74341932 33.24438868 24.54163776 32 33 C30.85844108 36.75281717 29.58780265 40.02242954 27 43 C24.32421875 44.2578125 24.32421875 44.2578125 22 45 C22.40992188 44.34773438 22.81984375 43.69546875 23.2421875 43.0234375 C27.63035175 35.9057931 31.27759543 29.65925792 30 21 C27.8043977 14.00967699 24.37512667 8.03913903 18 4.1875 C13.32890894 2.33852645 9.19489294 1.87716996 4.1875 1.9375 C3.21167969 1.94652344 2.23585938 1.95554688 1.23046875 1.96484375 C0.49441406 1.97644531 -0.24164063 1.98804688 -1 2 C-0.67 1.34 -0.34 0.68 0 0 Z " fill="#229ED7" transform="translate(305,59)"/>
<path d="M0 0 C4.95 0 9.9 0 15 0 C14.67 0.66 14.34 1.32 14 2 C10.37 2 6.74 2 3 2 C3.01160156 3.49273437 3.02320313 4.98546875 3.03515625 6.5234375 C3.04453375 8.47395709 3.05363399 10.42447802 3.0625 12.375 C3.07087891 13.35984375 3.07925781 14.3446875 3.08789062 15.359375 C3.09111328 16.30039063 3.09433594 17.24140625 3.09765625 18.2109375 C3.10289307 19.08024902 3.10812988 19.94956055 3.11352539 20.84521484 C3 23 3 23 2 25 C5.37622928 24.94782273 8.74995887 24.85267982 12.125 24.75 C13.07632812 24.73582031 14.02765625 24.72164062 15.0078125 24.70703125 C20.95269998 24.50061155 24.44583326 23.91191246 29 20 C30.83300909 17.89424357 30.83300909 17.89424357 32 16 C32.4375 18.1875 32.4375 18.1875 32 21 C27.73115619 25.17070947 24.82147379 26.32811924 18.84765625 26.48828125 C16.58535586 26.45996367 14.32345824 26.39540229 12.0625 26.3125 C8.081875 26.209375 4.10125 26.10625 0 26 C0 17.42 0 8.84 0 0 Z " fill="#2598CB" transform="translate(381,59)"/>
<path d="M0 0 C4.7748767 0.42131265 7.9057491 2.45907246 11 6 C15.05413897 12.13011898 17.59224161 18.5802183 17 26 C15.67211169 31.33965669 14.2464603 36.30265095 10 40 C9.34 39.67 8.68 39.34 8 39 C8.54140625 38.26910156 8.54140625 38.26910156 9.09375 37.5234375 C13.62675615 30.59801144 14.07299777 24.12551945 13 16 C11.58780003 11.87994086 9.13598417 8.97918497 6 6 C6 5.34 6 4.68 6 4 C5.38125 3.896875 4.7625 3.79375 4.125 3.6875 C2 3 2 3 0 0 Z " fill="#21A3D8" transform="translate(413,49)"/>
<path d="M0 0 C0.66 0.33 1.32 0.66 2 1 C1.34 2.32 0.68 3.64 0 5 C-0.66 5 -1.32 5 -2 5 C-3.12486087 7.73180496 -4.13031328 10.42351816 -5 13.25 C-6 16 -6 16 -8 17 C-10.07058687 26.31764089 -9.44167663 35.84371264 -7 45 C-7.66 45 -8.32 45 -9 45 C-9.4839655 43.45983306 -9.96192387 41.91777806 -10.4375 40.375 C-10.70433594 39.51648438 -10.97117187 38.65796875 -11.24609375 37.7734375 C-13.83986436 28.23158707 -12.83081941 19.89704414 -8.1875 11.125 C-5.79082638 7.05595462 -3.19229445 3.47396749 0 0 Z " fill="#28A5D8" transform="translate(283,55)"/>
<path d="M0 0 C-0.33 4.62 -0.66 9.24 -1 14 C-18.49 14 -35.98 14 -54 14 C-54 13.67 -54 13.34 -54 13 C-36.84 13 -19.68 13 -2 13 C-2 9.04 -2 5.08 -2 1 C-12.89 1 -23.78 1 -35 1 C-35 0.67 -35 0.34 -35 0 C-30.33712319 -0.16748075 -25.67407963 -0.32805376 -21.01074219 -0.48217773 C-19.42376271 -0.53560756 -17.83684605 -0.59093771 -16.25 -0.64819336 C-13.97149196 -0.73007724 -11.69284678 -0.80516524 -9.4140625 -0.87890625 C-8.34679428 -0.91945885 -8.34679428 -0.91945885 -7.25796509 -0.96083069 C-2.22774341 -1.11387171 -2.22774341 -1.11387171 0 0 Z " fill="#328AB6" transform="translate(182,109)"/>
<path d="M0 0 C0.66 0 1.32 0 2 0 C2 12.54 2 25.08 2 38 C5.96 38 9.92 38 14 38 C14 38.33 14 38.66 14 39 C9.05 39 4.1 39 -1 39 C-1.02724387 34.74995579 -1.0469563 30.50009034 -1.0625 26.25 C-1.07087891 25.06277344 -1.07925781 23.87554687 -1.08789062 22.65234375 C-1.10867032 15.04697478 -0.77144376 7.56658475 0 0 Z " fill="#14B0E6" transform="translate(366,82)"/>
<path d="M0 0 C0.625 2.3125 0.625 2.3125 1 5 C0.01 6.485 0.01 6.485 -1 8 C-4.96 7.67 -8.92 7.34 -13 7 C-11 2 -11 2 -8.75 0.125 C-5.39193874 -1.24875233 -3.46655157 -0.88679226 0 0 Z " fill="#018AD4" transform="translate(212,114)"/>
<path d="M0 0 C6.6 0 13.2 0 20 0 C21 2 21 2 20 14 C8.78 14 -2.44 14 -14 14 C-14 13.67 -14 13.34 -14 13 C-3.11 13 7.78 13 19 13 C18.67 9.7 18.34 6.4 18 3 C16.86820313 2.95101562 15.73640625 2.90203125 14.5703125 2.8515625 C13.08851661 2.77653486 11.606747 2.70098703 10.125 2.625 C9.37863281 2.5940625 8.63226563 2.563125 7.86328125 2.53125 C2.2265625 2.2265625 2.2265625 2.2265625 0 0 Z " fill="#228EC1" transform="translate(158,78)"/>
<path d="M0 0 C0.74427246 0.07677979 1.48854492 0.15355957 2.25537109 0.23266602 C7.74787225 0.97887007 11.90396261 2.82481194 16.75 5.5 C16.09 5.83 15.43 6.16 14.75 6.5 C13.7703125 6.03335938 12.790625 5.56671875 11.78125 5.0859375 C7.00923272 2.91975782 2.41408241 3.05926203 -2.75 3.125 C-3.66136719 3.11339844 -4.57273437 3.10179687 -5.51171875 3.08984375 C-11.23020691 3.11459911 -15.15625279 3.90741328 -20.25 6.5 C-23.50083509 7.68780513 -25.78917111 8.5 -29.25 8.5 C-19.85178482 1.99354334 -11.46245531 -1.20700808 0 0 Z " fill="#1E90C1" transform="translate(315.25,44.5)"/>
<path d="M0 0 C0.66 0 1.32 0 2 0 C2 0.66 2 1.32 2 2 C1.34 2 0.68 2 0 2 C-0.28875 2.7425 -0.5775 3.485 -0.875 4.25 C-1.82368263 6.56900199 -2.86559779 8.76932676 -4 11 C-3.30132812 10.98839844 -2.60265625 10.97679688 -1.8828125 10.96484375 C-0.97273437 10.95582031 -0.06265625 10.94679688 0.875 10.9375 C1.77992188 10.92589844 2.68484375 10.91429688 3.6171875 10.90234375 C6 11 6 11 8 12 C8.66 10.68 9.32 9.36 10 8 C10.99 8 11.98 8 13 8 C11.515625 10.9765625 11.515625 10.9765625 9 14 C5.95254181 14.45895455 3.7502035 14.5817278 0.75 14.375 C0.00492188 14.34792969 -0.74015625 14.32085937 -1.5078125 14.29296875 C-3.33978993 14.22250808 -5.17027151 14.11488993 -7 14 C-7.33 13.01 -7.66 12.02 -8 11 C-6.41796875 8.30078125 -6.41796875 8.30078125 -4.1875 5.3125 C-3.09501953 3.82169922 -3.09501953 3.82169922 -1.98046875 2.30078125 C-1.32691406 1.54152344 -0.67335937 0.78226562 0 0 Z " fill="#0F9EE4" transform="translate(203,110)"/>
<path d="M0 0 C3.36453059 1.41654801 5.10379922 3.03712202 7.3125 5.921875 C7.91320312 6.70046875 8.51390625 7.4790625 9.1328125 8.28125 C9.74898437 9.0959375 10.36515625 9.910625 11 10.75 C11.61617187 11.54921875 12.23234375 12.3484375 12.8671875 13.171875 C15.45215109 16.54453136 17.91807057 19.80829743 19.984375 23.5234375 C21.85472157 26.33754681 21.85472157 26.33754681 25.453125 26.8046875 C27.33257812 26.83949219 27.33257812 26.83949219 29.25 26.875 C30.51328125 26.91367188 31.7765625 26.95234375 33.078125 26.9921875 C34.04234375 26.99476562 35.0065625 26.99734375 36 27 C36 27.33 36 27.66 36 28 C30.67174449 28.70607558 25.27084206 29.35932243 20 28 C16.4431102 25.15345116 14.40599495 21.8067298 12.14648438 17.88378906 C9.9960183 14.35035715 7.42728422 11.11089814 4.9375 7.8125 C0 1.17101479 0 1.17101479 0 0 Z " fill="#2698CB" transform="translate(71,95)"/>
<path d="M0 0 C3.76993827 3.57574962 6.85099636 7.35016475 9.8125 11.625 C10.68055013 12.85968408 11.54904625 14.09405471 12.41796875 15.328125 C12.84770996 15.94107422 13.27745117 16.55402344 13.72021484 17.18554688 C15.66033739 19.9362128 17.64162507 22.65534557 19.625 25.375 C20.27726562 26.26960938 20.92953125 27.16421875 21.6015625 28.0859375 C22.06304687 28.71757813 22.52453125 29.34921875 23 30 C22.01 30.33 21.02 30.66 20 31 C17.78812266 28.02345025 15.58117516 25.04327791 13.375 22.0625 C12.75753906 21.23169922 12.14007813 20.40089844 11.50390625 19.54492188 C8.45705413 15.42365348 5.44812128 11.2785247 2.5390625 7.05859375 C2.04873535 6.34888428 1.5584082 5.6391748 1.05322266 4.90795898 C0 3 0 3 0 0 Z " fill="#2197CC" transform="translate(57,49)"/>
<path d="M0 0 C0.99 0.33 1.98 0.66 3 1 C3 5.95 3 10.9 3 16 C7.62 16 12.24 16 17 16 C17 16.66 17 17.32 17 18 C13.7 18 10.4 18 7 18 C7 18.66 7 19.32 7 20 C4.69 20 2.38 20 0 20 C0 13.4 0 6.8 0 0 Z " fill="#0EA3D5" transform="translate(141,61)"/>
<path d="M0 0 C1.18579147 -0.0049926 1.18579147 -0.0049926 2.39553833 -0.01008606 C4.07179175 -0.0151591 5.74805531 -0.01749427 7.42431641 -0.01733398 C9.99007858 -0.01951617 12.55540799 -0.03765564 15.12109375 -0.05664062 C16.74739436 -0.05957532 18.37369702 -0.06155961 20 -0.0625 C21.15325272 -0.07327827 21.15325272 -0.07327827 22.32980347 -0.08427429 C26.13754474 -0.06794204 27.88642832 0.00371263 31.1328125 2.16796875 C28.08235568 3.69319716 24.91325397 3.26862088 21.5703125 3.23046875 C20.44967407 3.22478882 20.44967407 3.22478882 19.30639648 3.21899414 C16.10426237 3.20260724 12.90225472 3.17445542 9.70019531 3.14746094 C7.36524032 3.12943406 5.03030574 3.11730361 2.6953125 3.10546875 C1.96820068 3.09717041 1.24108887 3.08887207 0.49194336 3.08032227 C-3.3132815 2.99343704 -3.3132815 2.99343704 -6.8671875 4.16796875 C-6.8671875 3.50796875 -6.8671875 2.84796875 -6.8671875 2.16796875 C-7.5271875 1.83796875 -8.1871875 1.50796875 -8.8671875 1.16796875 C-6.85164521 -0.84757354 -2.76479875 0.00398085 0 0 Z " fill="#0A96DD" transform="translate(466.8671875,103.83203125)"/>
<path d="M0 0 C0.33 0 0.66 0 1 0 C1.59863468 15.00248566 2.19306556 29.9837897 2 45 C0.515 45.495 0.515 45.495 -1 46 C-1.07336144 35.69475607 -0.84895607 25.42271705 -0.5 15.125 C-0.45161485 13.64714221 -0.40343675 12.16927763 -0.35546875 10.69140625 C-0.23935443 7.12752303 -0.12047885 3.56373866 0 0 Z " fill="#1EA0E0" transform="translate(128,60)"/>
<path d="M0 0 C2.99200107 4.4880016 4.70830247 9.43597301 6.6875 14.4375 C7.11611328 15.48744141 7.54472656 16.53738281 7.98632812 17.61914062 C8.38658203 18.63041016 8.78683594 19.64167969 9.19921875 20.68359375 C9.56877686 21.60712646 9.93833496 22.53065918 10.3190918 23.48217773 C11.04008917 26.14823938 10.93954527 27.44199533 10 30 C8.02 30 6.04 30 4 30 C5 28 5 28 8 27 C4.7 18.42 1.4 9.84 -2 1 C-1.34 0.67 -0.68 0.34 0 0 Z " fill="#1E98CC" transform="translate(480,64)"/>
<path d="M0 0 C3.3 0 6.6 0 10 0 C5.82091936 2.08954032 5.19589427 2.16552619 1 1 C1.42410156 1.66644531 1.84820312 2.33289062 2.28515625 3.01953125 C3.51702019 4.95531744 4.74599085 6.89294669 5.97265625 8.83203125 C7.31312845 10.92668048 8.6748993 13.0078667 10.05859375 15.07421875 C10.69925781 16.03972656 11.33992187 17.00523438 12 18 C12.8971875 19.3303125 12.8971875 19.3303125 13.8125 20.6875 C14.204375 21.450625 14.59625 22.21375 15 23 C14.67 23.99 14.34 24.98 14 26 C11.87470603 22.89603451 9.74981567 19.79179293 7.625 16.6875 C7.02171875 15.80642578 6.4184375 14.92535156 5.796875 14.01757812 C5.21679688 13.17001953 4.63671875 12.32246094 4.0390625 11.44921875 C3.50490723 10.66893311 2.97075195 9.88864746 2.42041016 9.0847168 C1.27022895 7.39661138 0.1330852 5.6996278 -1 4 C-0.67 2.68 -0.34 1.36 0 0 Z " fill="#2698CC" transform="translate(198,45)"/>
<path d="M0 0 C2.64752004 2.57784846 4.94432065 4.91648098 7 8 C7.66 5.69 8.32 3.38 9 1 C9.66 1.33 10.32 1.66 11 2 C11 4.97 11 7.94 11 11 C10.34 11 9.68 11 9 11 C8.34 11.66 7.68 12.32 7 13 C6.608125 12.175 6.21625 11.35 5.8125 10.5 C5.214375 9.675 4.61625 8.85 4 8 C1.37305578 7.58219121 1.37305578 7.58219121 -1 8 C-1.04241723 5.66705225 -1.04092937 3.33297433 -1 1 C-0.67 0.67 -0.34 0.34 0 0 Z " fill="#1496D2" transform="translate(84,86)"/>
<path d="M0 0 C0.99 0 1.98 0 3 0 C3.268125 0.598125 3.53625 1.19625 3.8125 1.8125 C4.86047309 4.05569277 4.86047309 4.05569277 6.6875 5.4375 C7.120625 5.953125 7.55375 6.46875 8 7 C7.67 8.65 7.34 10.3 7 12 C10.63 12 14.26 12 18 12 C18 12.66 18 13.32 18 14 C15.59454362 15.20272819 14.05003047 15.10071472 11.375 15.0625 C10.14910156 15.04896484 10.14910156 15.04896484 8.8984375 15.03515625 C7.95871094 15.01775391 7.95871094 15.01775391 7 15 C4.48550061 10.0577081 2.13259754 5.1182341 0 0 Z " fill="#169ED8" transform="translate(495,109)"/>
<path d="M0 0 C4.27636823 4.09692801 7.42322459 8.6893224 10.75 13.5625 C11.35199219 14.42552734 11.95398438 15.28855469 12.57421875 16.17773438 C13.14269531 17.00724609 13.71117187 17.83675781 14.296875 18.69140625 C14.81604492 19.44623291 15.33521484 20.20105957 15.87011719 20.97875977 C17 23 17 23 17 26 C14.35247996 23.42215154 12.05567935 21.08351902 10 18 C9.01 18 8.02 18 7 18 C7 15.69 7 13.38 7 11 C6.34 11 5.68 11 5 11 C3.7109375 9.609375 3.7109375 9.609375 2.375 7.75 C1.92898437 7.14671875 1.48296875 6.5434375 1.0234375 5.921875 C0 4 0 4 0 0 Z " fill="#2098D0" transform="translate(243,88)"/>
<path d="M0 0 C0.66 0 1.32 0 2 0 C2.96674186 3.9743832 3.04657372 7.53337291 2.87890625 11.61328125 C2.83056641 12.86044922 2.78222656 14.10761719 2.73242188 15.39257812 C2.67634766 16.68615234 2.62027344 17.97972656 2.5625 19.3125 C2.51029297 20.62541016 2.45808594 21.93832031 2.40429688 23.29101562 C2.2748336 26.52759739 2.13987458 29.76385421 2 33 C1.34 33 0.68 33 0 33 C0 22.11 0 11.22 0 0 Z " fill="#1D93CB" transform="translate(53,73)"/>
<path d="M0 0 C1 2 1 2 0.0390625 5.00390625 C-0.42757813 6.17824219 -0.89421875 7.35257812 -1.375 8.5625 C-1.83648437 9.73941406 -2.29796875 10.91632813 -2.7734375 12.12890625 C-4 15 -4 15 -5 16 C-7.53049402 16.07313567 -10.03304837 16.09247527 -12.5625 16.0625 C-13.27341797 16.05798828 -13.98433594 16.05347656 -14.71679688 16.04882812 C-16.47790013 16.03700864 -18.23896036 16.01907263 -20 16 C-20 15.01 -20 14.02 -20 13 C-15.05 13.33 -10.1 13.66 -5 14 C-4.9175 12.80375 -4.835 11.6075 -4.75 10.375 C-4.2232071 5.95622973 -2.70134013 3.48560017 0 0 Z " fill="#2296C8" transform="translate(461,107)"/>
<path d="M0 0 C0.33 0 0.66 0 1 0 C1.92375024 12.52194769 -0.10555982 20.87709923 -8 31 C-8.99 30.67 -9.98 30.34 -11 30 C-10.60167969 29.5153125 -10.20335937 29.030625 -9.79296875 28.53125 C-2.68240424 19.53491534 -1.35063745 11.31357486 0 0 Z " fill="#1CA2DF" transform="translate(350,80)"/>
<path d="M0 0 C1.28132813 0.00902344 2.56265625 0.01804688 3.8828125 0.02734375 C4.87023437 0.03894531 5.85765625 0.05054688 6.875 0.0625 C7.205 0.7225 7.535 1.3825 7.875 2.0625 C6.91078125 2.041875 5.9465625 2.02125 4.953125 2 C1.11441755 2.06267277 -2.37298041 2.23209937 -6.125 3.0625 C-8.03778117 5.04499529 -8.67390758 6.53150659 -9.44921875 9.15234375 C-10.125 11.0625 -10.125 11.0625 -13.125 13.0625 C-11.79166667 9.0625 -10.45833333 5.0625 -9.125 1.0625 C-6.12186252 -0.43906874 -3.33432478 -0.03031204 0 0 Z " fill="#089EDB" transform="translate(478.125,46.9375)"/>
<path d="M0 0 C0.99 0.33 1.98 0.66 3 1 C1.71118756 4.25113908 0.41845238 7.50070441 -0.875 10.75 C-1.23980469 11.67039062 -1.60460937 12.59078125 -1.98046875 13.5390625 C-2.51220703 14.87324219 -2.51220703 14.87324219 -3.0546875 16.234375 C-3.54171143 17.45979004 -3.54171143 17.45979004 -4.03857422 18.70996094 C-4.94094869 20.85934452 -5.93128796 22.92911052 -7 25 C-7.33 25 -7.66 25 -8 25 C-7.43375164 19.05837993 -5.6793942 14.07178852 -3.4375 8.5625 C-3.10814453 7.73556641 -2.77878906 6.90863281 -2.43945312 6.05664062 C-1.63314164 4.03501907 -0.81751877 2.01711551 0 0 Z " fill="#229AD2" transform="translate(475,67)"/>
<path d="M0 0 C0.66 1.32 1.32 2.64 2 4 C2.66 4 3.32 4 4 4 C4.84678051 5.86896555 5.67686211 7.74550181 6.5 9.625 C6.9640625 10.66914062 7.428125 11.71328125 7.90625 12.7890625 C9.02767398 16.08124291 9.207138 18.55115223 9 22 C5.83776716 18.83776716 4.79762944 14.47367695 3.29882812 10.32226562 C2.6135633 8.51533971 1.81337332 6.75299543 1 5 C0.01 4.67 -0.98 4.34 -2 4 C-1 1 -1 1 0 0 Z " fill="#159ADB" transform="translate(504,92)"/>
<path d="M0 0 C0.99 0 1.98 0 3 0 C2.89300781 0.81082031 2.78601563 1.62164062 2.67578125 2.45703125 C1.82124065 10.35004601 2.34555304 16.51655913 5 24 C2 23 2 23 1.015625 21.171875 C-1.28787076 13.88530678 -0.97944746 7.52876484 0 0 Z " fill="#1B9DD8" transform="translate(286,74)"/>
<path d="M0 0 C5.28 0 10.56 0 16 0 C16 0.66 16 1.32 16 2 C17.11375 2.185625 17.11375 2.185625 18.25 2.375 C20.80141485 2.95486701 22.7267573 3.73708739 25 5 C24.67 6.32 24.34 7.64 24 9 C23.360625 8.401875 22.72125 7.80375 22.0625 7.1875 C14.84634957 2.03310684 7.67063336 1.56241663 -1 2 C-0.67 1.34 -0.34 0.68 0 0 Z " fill="#2192C8" transform="translate(305,59)"/>
<path d="M0 0 C3.26008643 3.16952847 6.22237877 6.39937989 9 10 C10.65 7.69 12.3 5.38 14 3 C14.33 3.66 14.66 4.32 15 5 C13.62606995 8.66381347 12.8552323 10.56243929 9.3125 12.375 C8.549375 12.58125 7.78625 12.7875 7 13 C2.18602057 8.94612259 1.11458074 5.9782058 0 0 Z " fill="#2398CB" transform="translate(222,59)"/>
<path d="M0 0 C0.33 1.32 0.66 2.64 1 4 C1.66 4.33 2.32 4.66 3 5 C3.3690205 17.66970387 3.3690205 17.66970387 1 23 C0.67 23 0.34 23 0 23 C0 15.41 0 7.82 0 0 Z " fill="#18B1EF" transform="translate(381,98)"/>
<path d="M0 0 C0.66 0.66 1.32 1.32 2 2 C1.48050781 2.70125 0.96101562 3.4025 0.42578125 4.125 C-3.62030245 9.62946877 -7.46891714 15.15164401 -11 21 C-11.66 20.34 -12.32 19.68 -13 19 C-8.77319661 12.59012233 -4.42670836 6.27335297 0 0 Z " fill="#239CD2" transform="translate(228,96)"/>
<path d="M0 0 C0.99 0 1.98 0 3 0 C4.75 1.8125 4.75 1.8125 6 4 C5.67 4.99 5.34 5.98 5 7 C2.51979503 6.88658509 0.04155031 6.75985314 -2.4375 6.625 C-3.14455078 6.5940625 -3.85160156 6.563125 -4.58007812 6.53125 C-6.39239188 6.42719371 -8.19817988 6.22080108 -10 6 C-10.33 5.34 -10.66 4.68 -11 4 C-6.71 4 -2.42 4 2 4 C1.34 2.68 0.68 1.36 0 0 Z " fill="#18A3D8" transform="translate(424,116)"/>
<path d="M0 0 C0.144375 0.61875 0.28875 1.2375 0.4375 1.875 C0.93152225 4.03258322 0.93152225 4.03258322 2 6 C1.01 6.33 0.02 6.66 -1 7 C-0.01 8.65 0.98 10.3 2 12 C1.01 12.99 0.02 13.98 -1 15 C-2.93046061 13.14675781 -3.96708382 11.77901634 -4.08203125 9.05859375 C-3.76305258 5.79056698 -3.48681134 3.62311851 -1.4375 1 C-0.963125 0.67 -0.48875 0.34 0 0 Z " fill="#1296D7" transform="translate(454,89)"/>
<path d="M0 0 C6.6 0 13.2 0 20 0 C20 0.99 20 1.98 20 3 C17.04081802 2.88641524 14.08323217 2.75966914 11.125 2.625 C10.28324219 2.5940625 9.44148437 2.563125 8.57421875 2.53125 C7.76855469 2.49257812 6.96289062 2.45390625 6.1328125 2.4140625 C5.38918457 2.3826416 4.64555664 2.3512207 3.87939453 2.31884766 C2 2 2 2 0 0 Z " fill="#1596C4" transform="translate(158,78)"/>
<path d="M0 0 C7.23746374 -0.61334438 7.23746374 -0.61334438 10.875 2.3125 C14.2469363 6.57700767 15.24105075 8.57635811 15 14 C14.34 14 13.68 14 13 14 C12.81824219 13.45730469 12.63648438 12.91460937 12.44921875 12.35546875 C12.19785156 11.64003906 11.94648438 10.92460938 11.6875 10.1875 C11.32205078 9.12595703 11.32205078 9.12595703 10.94921875 8.04296875 C9.90164184 5.78830733 8.92969192 4.55859732 7 3 C4.69011685 2.25613932 2.35684056 1.57809297 0 1 C0 0.67 0 0.34 0 0 Z " fill="#2493C6" transform="translate(400,60)"/>
<path d="M0 0 C0.66 0.33 1.32 0.66 2 1 C1.34 2.32 0.68 3.64 0 5 C-0.66 5 -1.32 5 -2 5 C-2.28875 5.7425 -2.5775 6.485 -2.875 7.25 C-3.82302644 9.56739797 -4.84845911 11.77917115 -6 14 C-6.66 14 -7.32 14 -8 14 C-8.33 14.99 -8.66 15.98 -9 17 C-9.33 16.34 -9.66 15.68 -10 15 C-7.37459686 9.60598991 -3.92491136 4.52874388 0 0 Z " fill="#229BD3" transform="translate(283,55)"/>
<path d="M0 0 C4.76487706 -0.23243303 8.4547005 0.61329846 13 2 C15.99141054 2.70723444 18.99371802 3.3592052 22 4 C22 4.33 22 4.66 22 5 C14.21199669 5.28320012 7.15627433 4.23186583 0 1 C0 0.67 0 0.34 0 0 Z " fill="#2998D3" transform="translate(292,119)"/>
<path d="M0 0 C5.28 0 10.56 0 16 0 C16 0.99 16 1.98 16 3 C11.05 2.67 6.1 2.34 1 2 C0.67 2.99 0.34 3.98 0 5 C0 3.35 0 1.7 0 0 Z " fill="#188AC0" transform="translate(382,97)"/>
<path d="M0 0 C0.99 0.33 1.98 0.66 3 1 C3 5.62 3 10.24 3 15 C2.01 14.67 1.02 14.34 0 14 C0 9.38 0 4.76 0 0 Z " fill="#0DB2ED" transform="translate(141,61)"/>
<path d="M0 0 C4.92604873 0.43465136 7.51891224 2.59626975 11 6 C12.375 8.8125 12.375 8.8125 13 11 C9.26077165 9.03198508 7.85126866 7.70253733 6 4 C4.67696283 3.6278958 3.34262065 3.29369827 2 3 C1.34 2.01 0.68 1.02 0 0 Z " fill="#1B97CB" transform="translate(413,49)"/>
<path d="M0 0 C4.875 4.5 4.875 4.5 6 9 C3.03 9 0.06 9 -3 9 C-2.319375 8.443125 -1.63875 7.88625 -0.9375 7.3125 C-0.298125 6.549375 0.34125 5.78625 1 5 C0.85974801 2.29294488 0.85974801 2.29294488 0 0 Z " fill="#24A0CD" transform="translate(261,114)"/>
<path d="M0 0 C0 3 0 3 -2 5.1875 C-2.66 5.785625 -3.32 6.38375 -4 7 C-5.5625 5.75 -5.5625 5.75 -7 4 C-6.6875 1.8125 -6.6875 1.8125 -6 0 C-2.25 -1.125 -2.25 -1.125 0 0 Z " fill="#0D92D3" transform="translate(423,86)"/>
<path d="M0 0 C1.76171875 0.16015625 1.76171875 0.16015625 4 1 C5.95703125 3.43359375 5.95703125 3.43359375 7.8125 6.4375 C8.43769531 7.42621094 9.06289062 8.41492188 9.70703125 9.43359375 C10.13371094 10.28050781 10.56039062 11.12742187 11 12 C10.67 12.66 10.34 13.32 10 14 C8.33041937 11.85637773 6.66423643 9.71026458 5 7.5625 C4.52304687 6.95083984 4.04609375 6.33917969 3.5546875 5.70898438 C0 1.11328125 0 1.11328125 0 0 Z " fill="#2099CE" transform="translate(59,79)"/>
<path d="M0 0 C0.928125 0.928125 1.85625 1.85625 2.8125 2.8125 C7.30619347 6.72367765 12.26995512 7.81876109 18 9 C18 9.33 18 9.66 18 10 C7.42463533 9.10696921 7.42463533 9.10696921 3 7 C0 3 0 3 0 0 Z " fill="#0E98D9" transform="translate(293,101)"/>
<path d="M0 0 C0.66 0.66 1.32 1.32 2 2 C1.34 2 0.68 2 0 2 C0.33 3.32 0.66 4.64 1 6 C-0.98 6.66 -2.96 7.32 -5 8 C-5.33 9.65 -5.66 11.3 -6 13 C-6.66 13 -7.32 13 -8 13 C-7.3125 9.625 -7.3125 9.625 -6 6 C-3.4375 4.8125 -3.4375 4.8125 -1 4 C-0.11306697 1.95894361 -0.11306697 1.95894361 0 0 Z " fill="#0D95D6" transform="translate(244,53)"/>
<path d="M0 0 C0.66 0 1.32 0 2 0 C2 0.66 2 1.32 2 2 C1.34 2 0.68 2 0 2 C-0.4021875 3.1446875 -0.4021875 3.1446875 -0.8125 4.3125 C-1.97242259 6.93758796 -3.02464466 8.02464466 -5 10 C-5.71447643 12.10332891 -5.71447643 12.10332891 -6 14 C-6.66 13.67 -7.32 13.34 -8 13 C-6.44759763 8.03231242 -3.48945219 3.82132943 0 0 Z " fill="#299BC7" transform="translate(203,110)"/>
<path d="M0 0 C0 4.95 0 9.9 0 15 C-0.33 14.01 -0.66 13.02 -1 12 C-1.66 11.67 -2.32 11.34 -3 11 C-3 7.7 -3 4.4 -3 1 C-1 0 -1 0 0 0 Z " fill="#0AA5E5" transform="translate(130,105)"/>
<path d="M0 0 C1.21816406 0.03480469 1.21816406 0.03480469 2.4609375 0.0703125 C3.68683594 0.09738281 3.68683594 0.09738281 4.9375 0.125 C5.87722656 0.15980469 5.87722656 0.15980469 6.8359375 0.1953125 C6.5059375 0.8553125 6.1759375 1.5153125 5.8359375 2.1953125 C5.60971669 3.89895072 5.42705277 5.60859951 5.2734375 7.3203125 C5.18964844 8.23039062 5.10585937 9.14046875 5.01953125 10.078125 C4.95894531 10.77679688 4.89835938 11.47546875 4.8359375 12.1953125 C4.5059375 12.1953125 4.1759375 12.1953125 3.8359375 12.1953125 C3.8359375 8.8953125 3.8359375 5.5953125 3.8359375 2.1953125 C1.1959375 2.1953125 -1.4440625 2.1953125 -4.1640625 2.1953125 C-2.1640625 0.1953125 -2.1640625 0.1953125 0 0 Z " fill="#0DA7DF" transform="translate(176.1640625,46.8046875)"/>
<path d="M0 0 C0.66 0.33 1.32 0.66 2 1 C0.32642487 5.22797927 0.32642487 5.22797927 -2 7 C-6.37151981 7.55116813 -10.61557936 7.34213687 -15 7 C-15 6.67 -15 6.34 -15 6 C-11.04 6 -7.08 6 -3 6 C-2.67 4.68 -2.34 3.36 -2 2 C-1.34 1.34 -0.68 0.68 0 0 Z " fill="#2A9CCD" transform="translate(214,117)"/>
<path d="M0 0 C0 0.33 0 0.66 0 1 C-4.94398474 2.9775939 -8.75198038 3.34413243 -14 3 C-14.99 2.34 -15.98 1.68 -17 1 C-11.30494264 0.3583034 -5.73266804 -0.12462322 0 0 Z " fill="#11A0E5" transform="translate(322,120)"/>
<path d="M0 0 C0.33 0 0.66 0 1 0 C1.4375 2.1875 1.4375 2.1875 1 5 C-1.89451508 8.02534062 -4.76106558 9.86819847 -8.9375 10.3125 C-9.9584375 10.1578125 -9.9584375 10.1578125 -11 10 C-9.00443701 8.66962468 -6.98295147 7.37731723 -4.9375 6.125 C-2.17145459 4.12403098 -1.11988992 3.13569177 0 0 Z " fill="#1D92C5" transform="translate(412,75)"/>
<path d="M0 0 C2.64752004 2.57784846 4.94432065 4.91648098 7 8 C6.625 10.1875 6.625 10.1875 6 12 C4.99157547 10.56839732 3.99352109 9.12948547 3 7.6875 C2.1646875 6.48673828 2.1646875 6.48673828 1.3125 5.26171875 C0 3 0 3 0 0 Z " fill="#199ED1" transform="translate(57,49)"/>
<path d="M0 0 C7.26 0 14.52 0 22 0 C22 0.33 22 0.66 22 1 C19.36 1.66 16.72 2.32 14 3 C14 2.34 14 1.68 14 1 C9.38 1 4.76 1 0 1 C0 0.67 0 0.34 0 0 Z " fill="#0DA3DF" transform="translate(382,58)"/>
<path d="M0 0 C0.5859375 1.90234375 0.5859375 1.90234375 1 4 C-0.375 5.5625 -0.375 5.5625 -2 7 C-2.33 7.99 -2.66 8.98 -3 10 C-5.0625 11.1875 -5.0625 11.1875 -7 12 C-5.44298069 7.32894208 -2.91552627 3.91294315 0 0 Z " fill="#259CCD" transform="translate(246,47)"/>
<path d="M0 0 C0.66 0 1.32 0 2 0 C1.43518386 3.95371299 0.28003407 6.71675094 -2 10 C-2.99 10.495 -2.99 10.495 -4 11 C-3.52269162 9.5410574 -3.04308958 8.08286504 -2.5625 6.625 C-2.29566406 5.81289063 -2.02882813 5.00078125 -1.75390625 4.1640625 C-1 2 -1 2 0 0 Z " fill="#199CD0" transform="translate(469,49)"/>
<path d="M0 0 C3.96 0.33 7.92 0.66 12 1 C10 3 10 3 7.8359375 3.1953125 C6.61777344 3.16050781 6.61777344 3.16050781 5.375 3.125 C4.55773437 3.10695313 3.74046875 3.08890625 2.8984375 3.0703125 C2.27195312 3.04710938 1.64546875 3.02390625 1 3 C0.67 2.01 0.34 1.02 0 0 Z " fill="#1F93C9" transform="translate(468,92)"/>
<path d="M0 0 C2.44839588 3.67259383 4 6.54648201 4 11 C3.34 11 2.68 11 2 11 C0.68 7.7 -0.64 4.4 -2 1 C-1.34 0.67 -0.68 0.34 0 0 Z " fill="#1B9ED6" transform="translate(480,64)"/>
<path d="M0 0 C0.33 0 0.66 0 1 0 C0.50769231 6.52307692 0.50769231 6.52307692 -2.0625 8.9375 C-2.701875 9.288125 -3.34125 9.63875 -4 10 C-4.66 9.67 -5.32 9.34 -6 9 C-5.02501855 7.4972763 -4.04490611 5.99788037 -3.0625 4.5 C-2.51722656 3.6646875 -1.97195313 2.829375 -1.41015625 1.96875 C-0.94480469 1.3190625 -0.47945313 0.669375 0 0 Z " fill="#1E97CC" transform="translate(333,94)"/>
<path d="M0 0 C1.37478516 0.01740234 1.37478516 0.01740234 2.77734375 0.03515625 C3.69644531 0.04417969 4.61554688 0.05320313 5.5625 0.0625 C6.27277344 0.07410156 6.98304688 0.08570313 7.71484375 0.09765625 C4.23937302 2.04332576 2.58978031 2.17402752 -1.28515625 1.09765625 C-0.62515625 2.74765625 0.03484375 4.39765625 0.71484375 6.09765625 C-0.27515625 6.09765625 -1.26515625 6.09765625 -2.28515625 6.09765625 C-2.66734392 4.44150968 -2.99910727 2.77308601 -3.28515625 1.09765625 C-2.28515625 0.09765625 -2.28515625 0.09765625 0 0 Z " fill="#329FBD" transform="translate(200.28515625,44.90234375)"/>
<path d="M0 0 C1.875 0.25 1.875 0.25 4 1 C4.28875 1.66 4.5775 2.32 4.875 3 C5.431875 3.99 5.431875 3.99 6 5 C9.05908413 5.81584568 9.05908413 5.81584568 12 6 C12 6.33 12 6.66 12 7 C9.36 7 6.72 7 4 7 C2.02 3.535 2.02 3.535 0 0 Z " fill="#2695C2" transform="translate(408,116)"/>
<path d="M0 0 C0.66 0.99 1.32 1.98 2 3 C1.3203125 5.26171875 1.3203125 5.26171875 0.125 7.6875 C-0.45894531 8.89986328 -0.45894531 8.89986328 -1.0546875 10.13671875 C-1.52261719 11.05904297 -1.52261719 11.05904297 -2 12 C-2.33 12 -2.66 12 -3 12 C-2.49202991 7.6822542 -1.80317221 3.96697886 0 0 Z " fill="#229ED3" transform="translate(449,98)"/>
<path d="M0 0 C0.99 0 1.98 0 3 0 C4.38671875 1.53125 4.38671875 1.53125 5.6875 3.5 C6.12449219 4.1496875 6.56148437 4.799375 7.01171875 5.46875 C7.33785156 5.9740625 7.66398438 6.479375 8 7 C7.67 7.66 7.34 8.32 7 9 C4.03595495 6.19195732 1.55500981 3.81684226 0 0 Z " fill="#229DD8" transform="translate(199,51)"/>
<path d="M0 0 C0.66 0 1.32 0 2 0 C0.7508258 3.45925163 -0.67527795 6.14693203 -3 9 C-3.99 8.67 -4.98 8.34 -6 8 C-5.04956626 6.66102417 -4.08940853 5.32894573 -3.125 4 C-2.59132813 3.2575 -2.05765625 2.515 -1.5078125 1.75 C-1.01023437 1.1725 -0.51265625 0.595 0 0 Z " fill="#249CD3" transform="translate(345,102)"/>
<path d="M0 0 C2.97 0 5.94 0 9 0 C8.01 1.485 8.01 1.485 7 3 C3.875 3.1875 3.875 3.1875 1 3 C0.67 2.01 0.34 1.02 0 0 Z " fill="#0798D7" transform="translate(199,46)"/>
<path d="M0 0 C0.66 0.99 1.32 1.98 2 3 C1.34 3 0.68 3 0 3 C-0.33 5.31 -0.66 7.62 -1 10 C-1.66 9.67 -2.32 9.34 -3 9 C-3.36923077 3.46153846 -3.36923077 3.46153846 -1.5 1.125 C-1.005 0.75375 -0.51 0.3825 0 0 Z " fill="#0EA4E7" transform="translate(275,69)"/>
<path d="M0 0 C2.31 1.98 4.62 3.96 7 6 C6.67 6.66 6.34 7.32 6 8 C3.69 6.35 1.38 4.7 -1 3 C-0.67 2.01 -0.34 1.02 0 0 Z " fill="#2196C8" transform="translate(338,55)"/>
<path d="M0 0 C0.66 0 1.32 0 2 0 C2.33 2.31 2.66 4.62 3 7 C2.01 7 1.02 7 0 7 C0 4.69 0 2.38 0 0 Z " fill="#09ADD3" transform="translate(39,73)"/>
<path d="M0 0 C0.66 0.33 1.32 0.66 2 1 C1.34 2.32 0.68 3.64 0 5 C-0.66 5 -1.32 5 -2 5 C-2 5.66 -2 6.32 -2 7 C-2.99 7.33 -3.98 7.66 -5 8 C-3.62845496 5.04590299 -2.01136276 2.55991624 0 0 Z " fill="#2598C5" transform="translate(283,55)"/>
<path d="M0 0 C0.66 0.33 1.32 0.66 2 1 C1.67 1.99 1.34 2.98 1 4 C-1.64 4 -4.28 4 -7 4 C-4.66603411 2.44402274 -2.57343171 1.07918104 0 0 Z " fill="#1D8DC1" transform="translate(325,104)"/>
<path d="M0 0 C0.33 0 0.66 0 1 0 C1.99 3.63 2.98 7.26 4 11 C3.01 10.67 2.02 10.34 1 10 C-0.60725635 6.78548731 -0.05748185 3.56387464 0 0 Z " fill="#2798D0" transform="translate(287,87)"/>
<path d="M0 0 C3 3 3 3 3.1875 6.1875 C3.0946875 7.5796875 3.0946875 7.5796875 3 9 C2.34 9 1.68 9 1 9 C0.67 6.03 0.34 3.06 0 0 Z " fill="#179BD4" transform="translate(412,65)"/>
<path d="M0 0 C1.1446875 0.2784375 1.1446875 0.2784375 2.3125 0.5625 C5.08967375 1.22819173 5.08967375 1.22819173 8 0 C8 1.32 8 2.64 8 4 C4.31245243 3.50168276 2.39509338 2.89932357 0 0 Z " fill="#0894D6" transform="translate(138,108)"/>
</svg>
